<svg class="chat-bubbles svg-white" width="512" height="512" viewBox="0 0 512 512" xmlns="http://www.w3.org/2000/svg"><title>chat-bubbles</title><g fill="none" fill-rule="evenodd"><path d="M314.5418 239.5975c-19.0092 0-36.941 7.4685-50.4916 21.03-13.5508 13.5612-21.0133 31.5066-21.0133 50.5306 0 19.0244 7.4624 36.97 21.0132 50.5314 13.5507 13.561 31.4824 21.0296 50.4916 21.0296h46.5236c4.371 0 8.2623 2.771 9.6946 6.904 1.943 5.606 5.6808 13.7773 12.4535 20.8732 7.8225 8.196 17.996 13.0983 30.2372 14.5715.7047.0845 1.393.1275 2.045.1275.1693 0 .3327-.0027.4897-.008-6.258-9.025-8.06-20.8646-5.2056-34.3787.9736-4.6102 4.9574-7.9655 9.6624-8.1383 18.4557-.6788 35.7578-8.4438 48.7187-21.8645 12.9912-13.452 20.146-31.0837 20.146-49.6473 0-19.0243-7.463-36.9697-21.0136-50.531-13.5505-13.5614-31.4822-21.03-50.4914-21.03H314.5418zm96.4592 205.8618c-17.09-2.0563-31.432-9.0466-42.6277-20.7765-6.7605-7.083-11.2842-14.8297-14.2555-21.4252h-39.576c-12.376 0-24.4075-2.4473-35.7607-7.2744-10.945-4.6535-20.7836-11.3053-29.2424-19.771-8.459-8.4655-15.1057-18.3118-19.7555-29.2652-4.8232-11.362-7.2686-23.403-7.2686-35.7886 0-12.3853 2.4454-24.4265 7.2687-35.7886 4.65-10.9537 11.2966-20.8 19.7556-29.2653 8.4588-8.4657 18.2973-15.1175 29.2425-19.7712 11.3533-4.827 23.385-7.2744 35.7608-7.2744H417.802c12.376 0 24.4075 2.4474 35.7604 7.2743 10.9452 4.6537 20.7838 11.3055 29.2428 19.7712 8.4588 8.4653 15.1054 18.3116 19.7555 29.265 4.823 11.362 7.2687 23.4033 7.2687 35.7886 0 23.9182-9.2023 46.6194-25.912 63.9215-1.432 1.483-2.9057 2.912-4.418 4.2864-13.8983 12.6296-31.0753 20.626-49.5105 23.0836-.0475 4.0968.7406 8.3328 3.296 11.6267 5.224 6.7343 6.4346 14.2453 3.322 20.6074-3.3854 6.9194-11.2775 11.05-21.1113 11.05-1.4677 0-2.9803-.092-4.4947-.2744z" fill="#FFF"/><path d="M232.376 77.535H109.5338c-53.5 0-97.2724 43.8066-97.2724 97.3482v.0003c0 52.3392 41.8287 95.3747 93.683 97.2816 1.8975 8.9835 2.7493 22.415-5.1876 32.646-8.9343 11.517.9456 19.4535 15.4106 17.7128 39.9-4.801 55.39-34.5037 60.8624-50.292h55.3464c53.5 0 97.2725-43.8067 97.2725-97.3483v-.0003c0-53.5416-43.7724-97.3482-97.2724-97.3482" fill="#222"/><path d="M108.244 311.9753c.8828.2702 2.2135.5185 4.0326.5185.8534 0 1.7503-.0557 2.6658-.166 15.0225-1.8075 27.5202-7.8376 37.1464-17.923 8.2985-8.6946 12.8716-18.687 15.2464-25.5384 1.4323-4.1327 5.3236-6.904 9.6946-6.904h55.3464c23.134 0 44.9548-9.0872 61.4427-25.5882 16.488-16.5008 25.5683-38.3386 25.5683-61.4906 0-23.1523-9.0803-44.9902-25.5684-61.4912C277.331 96.8917 255.51 87.804 232.376 87.804H109.5338c-23.134 0-44.955 9.0877-61.443 25.5884-16.488 16.501-25.5682 38.339-25.5682 61.491 0 22.5918 8.7056 44.0482 24.513 60.416 15.7702 16.3296 36.825 25.7776 59.2855 26.603 4.705.1735 8.689 3.5288 9.6627 8.139 4.3753 20.7146-1.458 33.7662-7.1216 41.067-.2523.3257-.455.6146-.618.867m4.0326 21.057c-10.9383 0-19.6737-4.5062-23.3667-12.0545-1.7706-3.6192-2.2594-7.7125-1.414-11.8376.736-3.5905 2.4704-7.1658 5.1554-10.627 3.7205-4.7958 4.583-11.007 4.271-16.7522-24.5073-2.8863-47.2042-14.1305-64.6433-32.188C12.7535 229.355 2 202.83 2 174.8837c0-14.4712 2.8572-28.5396 8.4924-41.8142 5.4334-12.8 13.201-24.3064 23.0868-34.1996 9.8858-9.8937 21.3832-17.6675 34.173-23.105 13.2643-5.6397 27.3214-8.4993 41.7816-8.4993h122.8424c14.46 0 28.517 2.8596 41.7813 8.4992 12.7898 5.4376 24.2875 13.2114 34.173 23.1048 9.8857 9.8935 17.6534 21.4 23.0868 34.1997 5.6352 13.2748 8.4926 27.343 8.4926 41.814 0 14.4712-2.8575 28.5396-8.4927 41.8142-5.4334 12.7998-13.201 24.3065-23.0868 34.2-9.8855 9.893-21.3832 17.6668-34.173 23.1047-13.2643 5.6395-27.3214 8.499-41.7813 8.499h-48.347c-3.4466 7.9224-8.84 17.436-17.1002 26.0902-12.9993 13.6195-29.6658 21.7376-49.537 24.1283-1.725.2078-3.4462.313-5.1154.313" fill="#FFF"/><path d="M257.2923 166.4305H84.6173c-7.9142 0-14.3894-6.4803-14.3894-14.4007 0-7.9204 6.475-14.4008 14.3894-14.4008h172.675c7.9142 0 14.3894 6.4804 14.3894 14.4008s-6.4752 14.4007-14.3895 14.4007M188.1612 219.633H84.6174c-7.9142 0-14.3895-6.4803-14.3895-14.4007 0-7.9204 6.4752-14.4007 14.3894-14.4007h103.5438c7.9142 0 14.3895 6.4803 14.3895 14.4007 0 7.9204-6.4753 14.4007-14.3895 14.4007M307.8114 303.228h116.721c7.9142 0 14.3894-6.4805 14.3894-14.401 0-7.9203-6.4753-14.4006-14.3895-14.4006h-116.721c-7.914 0-14.3894 6.4803-14.3894 14.4007 0 7.9205 6.4752 14.401 14.3894 14.401M357.7413 356.4304h66.7908c7.9144 0 14.3896-6.4803 14.3896-14.4008 0-7.9204-6.4752-14.4007-14.3895-14.4007h-66.7907c-7.9142 0-14.3895 6.4802-14.3895 14.4006 0 7.9205 6.4753 14.4008 14.3895 14.4008" fill="#FFF"/></g></svg>